<svg xmlns="http://www.w3.org/2000/svg" xmlns:xlink="http://www.w3.org/1999/xlink" viewBox="0,0,256,256" width="48px" height="48px"><g fill="#ffffff" fill-rule="nonzero" stroke="none" stroke-width="1" stroke-linecap="butt" stroke-linejoin="miter" stroke-miterlimit="10" stroke-dasharray="" stroke-dashoffset="0" font-family="none" font-weight="none" font-size="none" text-anchor="none" style="mix-blend-mode: normal"><g transform="scale(5.33333,5.33333)"><path d="M37,45c-0.256,0 -0.512,-0.098 -0.707,-0.293l-12.293,-12.293l-12.293,12.293c-0.391,0.391 -1.023,0.391 -1.414,0l-5,-5c-0.188,-0.187 -0.293,-0.442 -0.293,-0.707v-2c0,-0.294 0.129,-0.573 0.354,-0.763l12.17,-10.298l-12.231,-12.232c-0.188,-0.187 -0.293,-0.442 -0.293,-0.707v-2c0,-0.351 0.184,-0.677 0.485,-0.857l5,-3c0.394,-0.235 0.898,-0.173 1.222,0.15l12.293,12.293l12.293,-12.293c0.324,-0.324 0.829,-0.386 1.222,-0.15l5,3c0.301,0.18 0.485,0.506 0.485,0.857v2c0,0.265 -0.105,0.52 -0.293,0.707l-12.231,12.231l12.17,10.298c0.225,0.191 0.354,0.47 0.354,0.764v2c0,0.265 -0.105,0.52 -0.293,0.707l-5,5c-0.195,0.195 -0.451,0.293 -0.707,0.293z"></path><path d="M42,37l-13,-13l13,-13l-5,-5l-13,13l-13,-13l-5,5l13,13l-13,13l5,5l13,-13l13,13z"></path><path d="M37,43c-0.256,0 -0.512,-0.098 -0.707,-0.293l-12.293,-12.293l-12.293,12.293c-0.391,0.391 -1.023,0.391 -1.414,0l-5,-5c-0.391,-0.391 -0.391,-1.023 0,-1.414l12.293,-12.293l-12.293,-12.293c-0.391,-0.391 -0.391,-1.023 0,-1.414l5,-5c0.391,-0.391 1.023,-0.391 1.414,0l12.293,12.293l12.293,-12.293c0.391,-0.391 1.023,-0.391 1.414,0l5,5c0.391,0.391 0.391,1.023 0,1.414l-12.293,12.293l12.293,12.293c0.391,0.391 0.391,1.023 0,1.414l-5,5c-0.195,0.195 -0.451,0.293 -0.707,0.293zM24,28c0.256,0 0.512,0.098 0.707,0.293l12.293,12.293l3.586,-3.586l-12.293,-12.293c-0.391,-0.391 -0.391,-1.023 0,-1.414l12.293,-12.293l-3.586,-3.586l-12.293,12.293c-0.391,0.391 -1.023,0.391 -1.414,0l-12.293,-12.293l-3.586,3.586l12.293,12.293c0.391,0.391 0.391,1.023 0,1.414l-12.293,12.293l3.586,3.586l12.293,-12.293c0.195,-0.195 0.451,-0.293 0.707,-0.293z"></path></g></g></svg>