<svg xmlns="http://www.w3.org/2000/svg" width="28.829" height="27.899" viewBox="0 0 28.829 27.899">
  <g id="Group_7537" data-name="Group 7537" transform="translate(11510.049 -8768.413)">
    <g id="admin_3_" data-name="admin (3)" transform="translate(-11510.049 8768.413)">
      <path id="Path_18725" data-name="Path 18725" d="M136.465,280a.465.465,0,0,0-.465.465v.465a.465.465,0,1,0,.93,0v-.465A.465.465,0,0,0,136.465,280Z" transform="translate(-128.56 -264.656)" fill="#7983de"/>
      <path id="Path_18726" data-name="Path 18726" d="M88.93,280.93v-.465a.465.465,0,1,0-.93,0v.465a.465.465,0,1,0,.93,0Z" transform="translate(-83.35 -264.656)" fill="#7983de"/>
      <path id="Path_18727" data-name="Path 18727" d="M98.325,328h-1.86a.465.465,0,1,0,0,.93h1.86a.465.465,0,1,0,0-.93Z" transform="translate(-90.885 -309.866)" fill="#7983de"/>
      <path id="Path_18728" data-name="Path 18728" d="M35.2,16H14.277a1.629,1.629,0,0,0-1.627,1.627V24.72a5.123,5.123,0,0,0-3.255,4.765v1.86c0,.008,0,.016,0,.024a1.62,1.62,0,0,0-.466,1.139v.465A1.629,1.629,0,0,0,10.557,34.6h.262a2.7,2.7,0,0,0,1.83,2.174v.616c0,.038,0,.077,0,.115L9.8,38.334l-.043.015A2.777,2.777,0,0,0,8,40.939v2.495a.465.465,0,0,0,.465.465h12.09a.465.465,0,0,0,.465-.465V40.939a2.777,2.777,0,0,0-1.754-2.591l-.043-.015L16.365,37.5c0-.038,0-.076,0-.115v-.616a2.709,2.709,0,0,0,1.719-1.709h4.662L23.784,36.1a.465.465,0,0,0,.614.038l1.045-.813a5.425,5.425,0,0,0,.808.341l.143,1.311a.465.465,0,0,0,.462.414h2.17a.465.465,0,0,0,.462-.408l.162-1.294a5.5,5.5,0,0,0,.83-.338l1.013.814a.466.466,0,0,0,.62-.034l1.065-1.065H35.2a1.629,1.629,0,0,0,1.627-1.627V17.627A1.629,1.629,0,0,0,35.2,16ZM10.79,33.669h-.232a.7.7,0,0,1-.7-.7v-.465a.7.7,0,0,1,.7-.7h.232Zm8.151,5.551a1.851,1.851,0,0,1,1.149,1.719v2.03h-.93V42.5a.465.465,0,0,0-.93,0v.465H10.79V42.5a.465.465,0,0,0-.93,0v.465H8.93v-2.03a1.851,1.851,0,0,1,1.149-1.719l2.863-.832a1.858,1.858,0,0,0,3.135,0ZM13.58,37.389v-.465h1.86v.465a.93.93,0,0,1-1.86,0Zm3.72-3.2a1.812,1.812,0,0,1-1.86,1.8H13.58a1.812,1.812,0,0,1-1.86-1.8v-4.01a.7.7,0,0,1,.7-.7H16.6a.7.7,0,0,1,.7.7Zm-.7-5.638H12.417a1.629,1.629,0,0,0-1.627,1.627v.7h-.465V29.484a4.185,4.185,0,1,1,8.37,0v1.395h-.465v-.7A1.629,1.629,0,0,0,16.6,28.555Zm2.557,4.417a.7.7,0,0,1-.7.7h-.232v-1.86h.232a.7.7,0,0,1,.7.7Zm12.812.319.729.938-.044.044-.906.906-.93-.746a.464.464,0,0,0-.525-.039,4.59,4.59,0,0,1-1.182.482.465.465,0,0,0-.348.393l-.149,1.193H27.274l-.132-1.2a.466.466,0,0,0-.342-.4,4.559,4.559,0,0,1-1.162-.489.463.463,0,0,0-.523.033l-.964.749-.88-.88L23.2,34.2l.767-.956a.466.466,0,0,0,.04-.525,4.58,4.58,0,0,1-.474-1.155.466.466,0,0,0-.392-.346l-1.222-.153V29.724l1.22-.134a.466.466,0,0,0,.4-.344,4.577,4.577,0,0,1,.479-1.154.465.465,0,0,0-.034-.521l-.754-.97.949-.949.949.761a.464.464,0,0,0,.527.038,4.575,4.575,0,0,1,1.164-.485.464.464,0,0,0,.344-.392l.151-1.2h1.343l.13,1.19a.466.466,0,0,0,.347.4,4.55,4.55,0,0,1,1.18.488.467.467,0,0,0,.521-.034l.944-.734.949.949-.741.923a.465.465,0,0,0-.037.528,4.581,4.581,0,0,1,.493,1.19.466.466,0,0,0,.393.346l1.175.147V31.1l-1.174.128a.465.465,0,0,0-.4.345,4.55,4.55,0,0,1-.5,1.189.464.464,0,0,0,.033.524Zm3.927.146a.7.7,0,0,1-.7.7H33.765a.481.481,0,0,0-.078-.153l-.792-1.018a5.509,5.509,0,0,0,.352-.838l1.279-.14a.465.465,0,0,0,.414-.462v-2.17a.466.466,0,0,0-.407-.461l-1.278-.159a5.4,5.4,0,0,0-.348-.84l.807-1a.466.466,0,0,0-.034-.62l-1.534-1.534a.465.465,0,0,0-.614-.038l-1.027.8a5.516,5.516,0,0,0-.828-.342l-.142-1.295a.465.465,0,0,0-.462-.414H26.9a.465.465,0,0,0-.462.408l-.163,1.309a5.54,5.54,0,0,0-.81.337l-1.031-.828a.466.466,0,0,0-.62.034l-1.534,1.534a.466.466,0,0,0-.038.614l.82,1.053a5.535,5.535,0,0,0-.332.8l-1.326.145a.465.465,0,0,0-.414.462v2.17a.466.466,0,0,0,.407.461l1.325.166a5.559,5.559,0,0,0,.328.8l-.835,1.039a.462.462,0,0,0-.091.191H19.6a1.622,1.622,0,0,0,.49-1.162v-.465a1.62,1.62,0,0,0-.466-1.139c0-.008,0-.016,0-.024v-1.86a5.117,5.117,0,0,0-6.045-5.03V19.72H35.9Zm0-14.647H13.58V17.627a.7.7,0,0,1,.7-.7H35.2a.7.7,0,0,1,.7.7Z" transform="translate(-8 -16)" fill="#7983de"/>
      <path id="Path_18729" data-name="Path 18729" d="M112.465,40.93h.465a.465.465,0,1,0,0-.93h-.465a.465.465,0,1,0,0,.93Z" transform="translate(-105.955 -38.605)" fill="#7983de"/>
      <path id="Path_18730" data-name="Path 18730" d="M144.465,40.93h.465a.465.465,0,1,0,0-.93h-.465a.465.465,0,0,0,0,.93Z" transform="translate(-136.095 -38.605)" fill="#7983de"/>
      <path id="Path_18731" data-name="Path 18731" d="M176.465,40.93h.465a.465.465,0,1,0,0-.93h-.465a.465.465,0,0,0,0,.93Z" transform="translate(-166.235 -38.605)" fill="#7983de"/>
      <path id="Path_18732" data-name="Path 18732" d="M291.664,200a3.72,3.72,0,1,0,3.72,3.72A3.72,3.72,0,0,0,291.664,200Zm0,6.51a2.79,2.79,0,1,1,2.79-2.79A2.79,2.79,0,0,1,291.664,206.51Z" transform="translate(-271.673 -189.305)" fill="#7983de"/>
    </g>
  </g>
</svg>
