<svg xmlns="http://www.w3.org/2000/svg" width="27.263" height="23.33" viewBox="0 0 27.263 23.33">
  <g id="Group_7540" data-name="Group 7540" transform="translate(11257.072 -8923.5)">
    <g id="table" transform="translate(-11257.072 8923.5)">
      <g id="Group_7522" data-name="Group 7522" transform="translate(0 0)">
        <g id="Group_7521" data-name="Group 7521">
          <path id="Path_18722" data-name="Path 18722" d="M26.72,56.375H.543a.573.573,0,0,0-.543.6V79.106a.573.573,0,0,0,.543.6H26.72a.573.573,0,0,0,.543-.6V56.974A.573.573,0,0,0,26.72,56.375ZM6.544,78.507H1.086v-3.23H6.544Zm0-4.429H1.086v-3.23H6.544Zm0-4.429H1.086v-3.23H6.544Zm0-4.429H1.086V62H6.544Zm6.544,13.287H7.63v-3.23h5.458Zm0-4.429H7.63v-3.23h5.458Zm0-4.429H7.63v-3.23h5.458Zm0-4.429H7.63V62h5.458Zm6.544,13.287H14.174v-3.23h5.458Zm0-4.429H14.174v-3.23h5.458Zm0-4.429H14.174v-3.23h5.458Zm0-4.429H14.174V62h5.458Zm6.544,13.287H20.719v-3.23h5.458Zm0-4.429H20.719v-3.23h5.458Zm0-4.429H20.719v-3.23h5.458Zm0-4.429H20.719V62h5.458Zm0-4.429H1.086V57.574h25.09Z" transform="translate(0 -56.375)" fill="#7983de"/>
          <path id="Path_18723" data-name="Path 18723" d="M199.543,88.711H209.97a.543.543,0,0,0,0-1.086H199.543a.543.543,0,1,0,0,1.086Z" transform="translate(-188.193 -85.928)" fill="#7983de"/>
          <path id="Path_18724" data-name="Path 18724" d="M426.543,88.711h1.195a.543.543,0,1,0,0-1.086h-1.195a.543.543,0,1,0,0,1.086Z" transform="translate(-402.865 -85.928)" fill="#7983de"/>
        </g>
      </g>
    </g>
  </g>
</svg>
