<svg xmlns="http://www.w3.org/2000/svg" width="28.903" height="29.306" viewBox="0 0 28.903 29.306">
  <g id="Group_7541" data-name="Group 7541" transform="translate(11191.743 -8502.885)">
    <path id="data" d="M26.83,19.421H23.324a.46.46,0,0,0-.46.46v9.966a.46.46,0,0,0,.46.46H26.83a.46.46,0,0,0,.46-.46V19.881A.46.46,0,0,0,26.83,19.421Zm-.46,9.966H23.783V20.341H26.37ZM20.707,16.51H17.2a.46.46,0,0,0-.46.46V29.846a.46.46,0,0,0,.46.46h3.506a.46.46,0,0,0,.46-.46V16.97A.46.46,0,0,0,20.707,16.51Zm-.46,12.876H17.66V17.43h2.587Zm-5.663-6.108H11.077a.46.46,0,0,0-.46.46v6.108a.46.46,0,0,0,.46.46h3.506a.46.46,0,0,0,.46-.46V23.739A.46.46,0,0,0,14.584,23.279Zm-.46,6.108H11.537V24.2h2.587ZM32.953,13.768H29.447a.46.46,0,0,0-.46.46V29.846a.46.46,0,0,0,.46.46h3.506a.46.46,0,0,0,.46-.46V14.228A.46.46,0,0,0,32.953,13.768Zm-.46,15.619H29.906v-14.7h2.587ZM12.466,19.251l6.123-7.961a.46.46,0,0,1,.62-.1l5.822,3.9,5.225-4.824-1.4-.066a.46.46,0,1,1,.043-.918l2.581.122a.46.46,0,0,1,.431.541l-.462,2.542a.46.46,0,1,1-.9-.164l.235-1.292-5.395,4.981a.46.46,0,0,1-.568.044l-5.765-3.864-5.861,7.62a.46.46,0,0,1-.729-.561ZM16.552,5.187a.46.46,0,0,1,.824-.408,6.787,6.787,0,0,1-.7,7.13l.135-.011a.46.46,0,1,1,.074.916l-1.291.1h-.037a.46.46,0,0,1-.458-.5l.1-1.291a.46.46,0,0,1,.915-.018,5.87,5.87,0,0,0,.433-5.928ZM6.034,10.38a.46.46,0,1,1-.824.408,6.787,6.787,0,0,1,.7-7.13l-.135.011A.46.46,0,0,1,5.7,2.752l1.291-.1a.46.46,0,0,1,.495.495l-.1,1.291a.46.46,0,0,1-.458.423H6.887a.46.46,0,0,1-.42-.4,5.87,5.87,0,0,0-.433,5.928ZM8.081,2.316A.46.46,0,0,1,8.289,1.7a6.787,6.787,0,0,1,7.13.7l-.011-.135a.46.46,0,1,1,.916-.074l.1,1.291a.46.46,0,0,1-.458.5h-.037l-1.291-.1a.46.46,0,0,1-.018-.915A5.87,5.87,0,0,0,8.7,2.524a.46.46,0,0,1-.616-.208ZM7.178,13.3a.46.46,0,0,1-.421.495H6.719a.46.46,0,0,1-.458-.423l-.1-1.291a.46.46,0,0,1,.495-.495l1.291.1a.46.46,0,0,1,.018.915,5.87,5.87,0,0,0,5.928.433.46.46,0,0,1,.408.824,6.787,6.787,0,0,1-7.13-.7Zm3.383-.671h1.465a.46.46,0,0,0,.46-.46V11.8a4.132,4.132,0,0,0,.8-.333l.266.266a.46.46,0,0,0,.65,0l1.036-1.036a.46.46,0,0,0,0-.65l-.266-.266a4.135,4.135,0,0,0,.333-.8h.375a.46.46,0,0,0,.46-.46V7.051a.46.46,0,0,0-.46-.46h-.375a4.135,4.135,0,0,0-.333-.8l.266-.266a.46.46,0,0,0,0-.65L14.2,3.837a.46.46,0,0,0-.65,0l-.266.266a4.138,4.138,0,0,0-.8-.333V3.394a.46.46,0,0,0-.46-.46H10.561a.46.46,0,0,0-.46.46V3.77a4.136,4.136,0,0,0-.8.333l-.266-.266a.46.46,0,0,0-.65,0L7.347,4.873a.46.46,0,0,0,0,.65l.266.266a4.135,4.135,0,0,0-.333.8H6.9a.46.46,0,0,0-.46.46V8.516a.46.46,0,0,0,.46.46H7.28a4.132,4.132,0,0,0,.333.8l-.266.266a.46.46,0,0,0,0,.65L8.383,11.73a.46.46,0,0,0,.65,0l.266-.266a4.135,4.135,0,0,0,.8.333v.375a.46.46,0,0,0,.46.46ZM9.483,10.5a.46.46,0,0,0-.58.057l-.195.195-.386-.386.195-.195a.46.46,0,0,0,.057-.58A3.231,3.231,0,0,1,8.09,8.426a.46.46,0,0,0-.451-.37H7.364V7.511H7.64a.46.46,0,0,0,.451-.37,3.233,3.233,0,0,1,.484-1.168.46.46,0,0,0-.057-.58L8.322,5.2l.386-.386.195.195a.46.46,0,0,0,.58.057,3.233,3.233,0,0,1,1.168-.484.46.46,0,0,0,.37-.451V3.854h.545v.275a.46.46,0,0,0,.37.451,3.233,3.233,0,0,1,1.168.484.46.46,0,0,0,.58-.057l.195-.195.386.386-.195.195a.46.46,0,0,0-.057.58A3.232,3.232,0,0,1,14.5,7.141a.46.46,0,0,0,.451.37h.275v.545h-.275a.46.46,0,0,0-.451.37,3.232,3.232,0,0,1-.484,1.168.46.46,0,0,0,.057.58l.195.195-.386.386-.195-.195a.46.46,0,0,0-.58-.057,3.232,3.232,0,0,1-1.168.484.46.46,0,0,0-.37.451v.275h-.545v-.275a.46.46,0,0,0-.37-.451A3.233,3.233,0,0,1,9.483,10.5Zm4.545-2.719a2.734,2.734,0,1,0-2.734,2.734A2.737,2.737,0,0,0,14.028,7.783Zm-4.549,0A1.815,1.815,0,1,1,11.293,9.6,1.817,1.817,0,0,1,9.478,7.783Z" transform="translate(-11196.253 8501.885)" fill="#7983de"/>
  </g>
</svg>
