<svg xmlns="http://www.w3.org/2000/svg" width="25.626" height="36.109" viewBox="0 0 25.626 36.109">
  <g id="Group_7536" data-name="Group 7536" transform="translate(11578.771 -8626.374)">
    <g id="management" transform="translate(-11578.771 8626.374)">
      <path id="Path_18747" data-name="Path 18747" d="M33.3,1H14.659a.582.582,0,0,0-.412.171L10.171,5.247A.582.582,0,0,0,10,5.659V34.78a2.33,2.33,0,0,0,2.33,2.33H33.3a2.33,2.33,0,0,0,2.33-2.33V3.33A2.33,2.33,0,0,0,33.3,1ZM14.077,5.077H11.988l2.089-2.089Zm20.384,29.7A1.165,1.165,0,0,1,33.3,35.944H12.33a1.165,1.165,0,0,1-1.165-1.165V6.242h3.494a.582.582,0,0,0,.582-.582V2.165H33.3A1.165,1.165,0,0,1,34.461,3.33Z" transform="translate(-10 -1)" fill="#7983de"/>
      <path id="Path_18748" data-name="Path 18748" d="M33.143,19.672a.582.582,0,0,0,0-.824l-1.088-1.088a7.542,7.542,0,0,0,.46-1.112h1.539a.582.582,0,0,0,.582-.582V12.571a.582.582,0,0,0-.582-.582H32.515a7.542,7.542,0,0,0-.46-1.112l1.088-1.088a.582.582,0,0,0,0-.824L30.672,6.494a.582.582,0,0,0-.824,0L28.761,7.582a7.542,7.542,0,0,0-1.112-.46V5.582A.582.582,0,0,0,27.066,5H23.571a.582.582,0,0,0-.582.582V7.122a7.541,7.541,0,0,0-1.112.46L20.789,6.494a.582.582,0,0,0-.824,0L17.494,8.965a.582.582,0,0,0,0,.824l1.088,1.088a7.542,7.542,0,0,0-.46,1.112H16.582a.582.582,0,0,0-.582.582v3.494a.582.582,0,0,0,.582.582h1.539a7.541,7.541,0,0,0,.46,1.112l-1.088,1.088a.582.582,0,0,0,0,.824l2.471,2.471a.582.582,0,0,0,.824,0l1.088-1.088a7.522,7.522,0,0,0,.825.361l.4-1.093a6.38,6.38,0,0,1-1.033-.49.582.582,0,0,0-.708.09l-.985.985L18.729,19.26l.985-.985a.582.582,0,0,0,.09-.708,6.371,6.371,0,0,1-.681-1.647.582.582,0,0,0-.564-.437H17.165v-2.33h1.394a.582.582,0,0,0,.564-.437A6.371,6.371,0,0,1,19.8,11.07a.582.582,0,0,0-.09-.708l-.985-.985,1.648-1.648.985.985a.582.582,0,0,0,.708.09,6.371,6.371,0,0,1,1.647-.681.582.582,0,0,0,.437-.564V6.165h2.33V7.559a.582.582,0,0,0,.437.564,6.371,6.371,0,0,1,1.647.681.582.582,0,0,0,.708-.09l.985-.985,1.648,1.648-.985.985a.582.582,0,0,0-.09.708,6.371,6.371,0,0,1,.681,1.647.582.582,0,0,0,.564.437h1.394v2.33H32.078a.582.582,0,0,0-.564.437,6.371,6.371,0,0,1-.681,1.647.582.582,0,0,0,.09.708l.985.985L29.848,21.32l.824.824Z" transform="translate(-12.506 -2.67)" fill="#7983de"/>
      <path id="Path_18749" data-name="Path 18749" d="M31.736,23.649H29.989V22.186a5.242,5.242,0,1,0-3.494,0V32.968a.582.582,0,0,0,.582.582h2.33a.582.582,0,0,0,.582-.582V31.8h1.747a.582.582,0,0,0,.582-.582v-2.33a.582.582,0,0,0-.582-.582H29.989V27.144h1.747a.582.582,0,0,0,.582-.582v-2.33A.582.582,0,0,0,31.736,23.649Zm-.582,2.33H29.406a.582.582,0,0,0-.582.582v2.33a.582.582,0,0,0,.582.582h1.747v1.165H29.406a.582.582,0,0,0-.582.582v1.165H27.659V21.755a.582.582,0,0,0-.437-.564,4.077,4.077,0,1,1,2.038,0,.582.582,0,0,0-.437.564v2.476a.582.582,0,0,0,.582.582h1.747Z" transform="translate(-15.428 -5.595)" fill="#7983de"/>
      <path id="Path_18750" data-name="Path 18750" d="M32.824,18.912a2.912,2.912,0,1,0-2.912,2.912,2.912,2.912,0,0,0,2.912-2.912Zm-2.912,1.747a1.747,1.747,0,1,1,1.747-1.747A1.747,1.747,0,0,1,29.912,20.659Z" transform="translate(-17.099 -7.264)" fill="#7983de"/>
      <path id="Path_18751" data-name="Path 18751" d="M19,52h8.736v1.165H19Z" transform="translate(-13.758 -22.297)" fill="#7983de"/>
      <path id="Path_18752" data-name="Path 18752" d="M36,52h1.165v1.165H36Z" transform="translate(-20.857 -22.297)" fill="#7983de"/>
      <path id="Path_18753" data-name="Path 18753" d="M40,52h5.824v1.165H40Z" transform="translate(-22.528 -22.297)" fill="#7983de"/>
      <path id="Path_18754" data-name="Path 18754" d="M15,57H28.978v1.165H15Z" transform="translate(-12.088 -24.385)" fill="#7983de"/>
      <path id="Path_18755" data-name="Path 18755" d="M41,57h4.659v1.165H41Z" transform="translate(-22.945 -24.385)" fill="#7983de"/>
    </g>
  </g>
</svg>
