<svg xmlns="http://www.w3.org/2000/svg" width="26.473" height="31.404" viewBox="0 0 26.473 31.404">
  <g id="Group_7539" data-name="Group 7539" transform="translate(11374.351 -8846.92)">
    <g id="Layer_x0020_1" transform="translate(-11374.351 8846.92)">
      <path id="Path_18721" data-name="Path 18721" d="M147.228,31.4a.654.654,0,0,1-.184-.037A16.822,16.822,0,0,1,135.8,22.5a17,17,0,0,1-1.8-6.421V2.815a.731.731,0,0,1,1.1-.626c4.507,2.594,10.026-.7,11.664-2.024a.721.721,0,0,1,.92,0c1.656,1.325,7.175,4.618,11.682,2.024a.734.734,0,0,1,1.1.626V16.079a17.411,17.411,0,0,1-1.8,6.421,16.822,16.822,0,0,1-11.241,8.867A.783.783,0,0,1,147.228,31.4Zm5.262-10.615h-10.56a.738.738,0,0,1-.736-.736V12.8a.738.738,0,0,1,.736-.736h1.858v-1.49c0-3.974,6.844-3.974,6.844,0v1.49h1.858a.738.738,0,0,1,.736.736v7.248A.738.738,0,0,1,152.489,20.789Zm-5.28-2.76c-.938,0-.736-1.141-.736-1.95a.736.736,0,0,1,1.472,0C147.945,16.889,148.147,18.029,147.209,18.029Zm-1.95-5.961h3.9v-1.49c0-2.024-3.9-2.042-3.9,0Zm-2.594,7.248h9.088V13.54h-9.088Zm-7.193-3.256a16.5,16.5,0,0,0,1.674,5.85A15.237,15.237,0,0,0,147.228,29.9a15.271,15.271,0,0,0,10.1-7.984A16.406,16.406,0,0,0,159,16.061V3.992c-4.489,1.8-9.309-.589-11.774-2.336-2.576,1.84-7.359,4.121-11.756,2.336Z" transform="translate(-134 0)" fill="#7983de" fill-rule="evenodd"/>
    </g>
  </g>
</svg>
