<svg xmlns="http://www.w3.org/2000/svg" width="28.748" height="28.748" viewBox="0 0 28.748 28.748">
  <g id="Group_7538" data-name="Group 7538" transform="translate(11623.928 -8845.428)">
    <g id="_x30_4" transform="translate(-11623.928 8845.428)">
      <path id="Path_18733" data-name="Path 18733" d="M21.053,10.08V8.027a1.027,1.027,0,0,0-2.053,0V10.08a1.027,1.027,0,1,0,2.053,0Z" transform="translate(-1.546 -1.866)" fill="#7983de"/>
      <path id="Path_18734" data-name="Path 18734" d="M24.053,10.08V8.027a1.027,1.027,0,0,0-2.053,0V10.08a1.027,1.027,0,1,0,2.053,0Z" transform="translate(-1.466 -1.866)" fill="#7983de"/>
      <path id="Path_18735" data-name="Path 18735" d="M27.053,10.08V8.027a1.027,1.027,0,1,0-2.053,0V10.08a1.027,1.027,0,1,0,2.053,0Z" transform="translate(-1.386 -1.866)" fill="#7983de"/>
      <path id="Path_18736" data-name="Path 18736" d="M21.053,18.08V16.027a1.027,1.027,0,1,0-2.053,0V18.08a1.027,1.027,0,0,0,2.053,0Z" transform="translate(-1.546 -1.653)" fill="#7983de"/>
      <path id="Path_18737" data-name="Path 18737" d="M24.053,18.08V16.027a1.027,1.027,0,1,0-2.053,0V18.08a1.027,1.027,0,0,0,2.053,0Z" transform="translate(-1.466 -1.653)" fill="#7983de"/>
      <path id="Path_18738" data-name="Path 18738" d="M27.053,18.08V16.027a1.027,1.027,0,1,0-2.053,0V18.08a1.027,1.027,0,0,0,2.053,0Z" transform="translate(-1.386 -1.653)" fill="#7983de"/>
      <path id="Path_18739" data-name="Path 18739" d="M20.027,27.107a1.026,1.026,0,0,0,1.027-1.027V24.027a1.027,1.027,0,1,0-2.053,0V26.08A1.026,1.026,0,0,0,20.027,27.107Z" transform="translate(-1.546 -1.439)" fill="#7983de"/>
      <path id="Path_18740" data-name="Path 18740" d="M23.027,27.107a1.026,1.026,0,0,0,1.027-1.027V24.027a1.027,1.027,0,1,0-2.053,0V26.08A1.026,1.026,0,0,0,23.027,27.107Z" transform="translate(-1.466 -1.439)" fill="#7983de"/>
      <path id="Path_18741" data-name="Path 18741" d="M26.027,27.107a1.026,1.026,0,0,0,1.027-1.027V24.027a1.027,1.027,0,1,0-2.053,0V26.08A1.026,1.026,0,0,0,26.027,27.107Z" transform="translate(-1.386 -1.439)" fill="#7983de"/>
      <path id="Path_18742" data-name="Path 18742" d="M27.5,4H17.187a1.027,1.027,0,0,0,0,2.053H27.5a.987.987,0,0,1,.986.986v5.175H17.187a1.027,1.027,0,0,0,0,2.053H28.481v6.16H11.027A1.026,1.026,0,0,0,10,21.454v6.2a3.043,3.043,0,0,0,3.039,3.039H27.5a3.043,3.043,0,0,0,3.039-3.039V7.039A3.043,3.043,0,0,0,27.5,4Zm.986,23.656a.987.987,0,0,1-.986.986H13.039a.987.987,0,0,1-.986-.986V22.481H28.481Z" transform="translate(-1.786 -1.947)" fill="#7983de"/>
      <path id="Path_18743" data-name="Path 18743" d="M9.187,16.374H4.053V4.053h6.762l2.478,2.478v5.735a1.027,1.027,0,0,0,2.053,0V6.107a1.024,1.024,0,0,0-.3-.726L11.966,2.3A1.022,1.022,0,0,0,11.24,2H3.027A1.026,1.026,0,0,0,2,3.027V17.4a1.026,1.026,0,0,0,1.027,1.027h6.16a1.027,1.027,0,0,0,0-2.053Z" transform="translate(-2 -2)" fill="#7983de"/>
      <path id="Path_18744" data-name="Path 18744" d="M6.354,12.859a1.027,1.027,0,0,0,1.452-1.452L6.478,10.08,7.806,8.753A1.027,1.027,0,0,0,6.354,7.3L4.3,9.354a1.026,1.026,0,0,0,0,1.452Z" transform="translate(-1.947 -1.866)" fill="#7983de"/>
      <path id="Path_18745" data-name="Path 18745" d="M10.753,7.3A1.027,1.027,0,0,0,9.3,8.753l1.328,1.328L9.3,11.408a1.027,1.027,0,1,0,1.452,1.452l2.053-2.053a1.026,1.026,0,0,0,0-1.452Z" transform="translate(-1.813 -1.866)" fill="#7983de"/>
      <path id="Path_18746" data-name="Path 18746" d="M15.107,19.134V18.107h1.027a1.027,1.027,0,0,0,0-2.053H15.107V15.027a1.027,1.027,0,0,0-2.053,0v1.027H12.027a1.027,1.027,0,0,0,0,2.053h1.027v1.027a1.027,1.027,0,0,0,2.053,0Z" transform="translate(-1.76 -1.679)" fill="#7983de"/>
    </g>
  </g>
</svg>
